<svg id="Capa_1" enable-background="new 0 0 512 512" height="512" viewBox="0 0 512 512" width="512" xmlns="http://www.w3.org/2000/svg"><g><path d="m328.927 395.682h-10.447c8.035 0 15.298 3.245 20.562 8.509 5.275 5.264 8.52 12.527 8.52 20.562 0 16.071-13.022 29.082-29.082 29.082h-10.436c8.025 0 15.308 3.255 20.562 8.509 5.264 5.264 8.509 12.548 8.509 20.573 0 16.071-13.011 29.082-29.072 29.082h-171.691l-42.21-21.422-39.789-62.27 23.107-94.457 6.593-26.96 99.34-59.926c17.194-10.353 39.24-7.675 53.435 6.521l56.727 25.868h24.926c8.035 0 15.298 3.255 20.562 8.509 5.275 5.275 8.52 12.527 8.52 20.562 0 16.071-13.022 29.092-29.082 29.092h10.446c16.061 0 29.072 13.011 29.072 29.072-.001 16.073-13.012 29.094-29.072 29.094z" fill="#ffddce"/><path d="m256.907 273.565c-6.913 3.667-16.164 5.79-28.072 5.79-89.646 0-127.526 57.072-127.526 83.115l-23.849-28.618 6.593-26.96 99.34-59.926c17.194-10.353 39.24-7.675 53.435 6.521z" fill="#ffcbbe"/><g><path d="m228.832 145.524h64.723v133.835h-64.723z" fill="#26457d"/><path d="m228.832 145.524h23.107v133.835h-23.107z" fill="#21386b"/></g><g><path d="m337.126 482.916c0 16.065-13.026 29.081-29.081 29.081h-171.693c-17.34 0-32.701-8.431-42.21-21.419h213.903c12.276 0 22.77-7.606 27.027-18.372.009.038.038.066.056.103 1.285 3.283 1.998 6.865 1.998 10.607z" fill="#ffcbbe"/></g><g><path d="m345.511 414.043c1.313 3.317 2.043 6.928 2.043 10.709 0 16.072-13.015 29.087-29.074 29.087h-11.143c-5.915 0-10.71-4.795-10.71-10.71 0-5.915 4.795-10.71 10.71-10.71h11.143c12.276 0 22.767-7.611 27.031-18.376z" fill="#ffcbbe"/></g><g><path d="m355.957 355.882c1.313 3.317 2.043 6.928 2.043 10.709 0 16.072-13.015 29.087-29.074 29.087h-11.143c-5.915 0-10.71-4.795-10.71-10.71 0-5.915 4.795-10.71 10.71-10.71h11.143c12.277 0 22.768-7.611 27.031-18.376z" fill="#ffcbbe"/></g><g><path d="m345.523 297.721c1.313 3.317 2.043 6.928 2.043 10.709 0 16.072-13.015 29.087-29.074 29.087h-11.143c-5.915 0-10.71-4.795-10.71-10.71 0-5.915 4.795-10.71 10.71-10.71h11.143c12.277 0 22.767-7.612 27.031-18.376z" fill="#ffcbbe"/></g><path d="m18.87 307.879v181.348c0 12.577 10.196 22.773 22.773 22.773h44.903c12.577 0 22.773-10.196 22.773-22.773v-181.348c0-12.577-10.196-22.773-22.773-22.773h-44.903c-12.577-.001-22.773 10.195-22.773 22.773z" fill="#26457d"/><path d="m18.864 432.106v57.127c0 12.577 10.203 22.768 22.78 22.768h44.903c12.577 0 22.768-10.191 22.768-22.768v-57.127c0 12.577-10.191 22.78-22.768 22.78h-44.903c-12.577 0-22.78-10.203-22.78-22.78z" fill="#21386b"/><circle cx="261.577" cy="127.448" fill="#78d0b1" r="127.448"/><path d="m275.975 254.098c-4.718.536-9.529.804-14.392.804-70.392 0-127.454-57.062-127.454-127.454 0-70.382 57.062-127.444 127.454-127.444 4.863 0 9.674.268 14.392.804-63.614 7.149-113.062 61.121-113.062 126.64-.001 65.529 49.448 119.501 113.062 126.65z" fill="#66b49d"/><g fill="#f1f4f6"><g><path d="m114.728 44.161-1.28 2.217c-4.514 7.819-14.312 10.807-22.421 6.839l-24.944-12.208c-8.935-4.372-12.297-15.397-7.324-24.012l3.18-5.509c4.974-8.614 16.203-11.215 24.457-5.663l23.043 15.499c7.493 5.039 9.803 15.018 5.289 22.837z"/><path d="m408.425 210.735 1.28-2.217c4.514-7.819 14.312-10.807 22.421-6.839l24.944 12.207c8.935 4.372 12.297 15.397 7.324 24.012l-3.18 5.509c-4.974 8.614-16.203 11.215-24.457 5.663l-23.043-15.499c-7.492-5.039-9.803-15.018-5.289-22.836z"/><path d="m92.069 126.168v2.56c0 9.028-6.991 16.515-15.998 17.133l-27.706 1.9c-9.924.681-18.348-7.186-18.348-17.133v-6.361c0-9.947 8.425-17.814 18.348-17.133l27.706 1.9c9.007.619 15.998 8.105 15.998 17.134z"/><path d="m431.085 128.728v-2.56c0-9.028 6.991-16.515 15.998-17.133l27.706-1.9c9.924-.681 18.348 7.186 18.348 17.133v6.361c0 9.947-8.425 17.814-18.348 17.133l-27.706-1.9c-9.008-.619-15.998-8.106-15.998-17.134z"/><path d="m113.448 208.518 1.28 2.217c4.514 7.819 2.203 17.798-5.288 22.836l-23.043 15.499c-8.254 5.551-19.483 2.951-24.457-5.663l-3.18-5.509c-4.974-8.614-1.611-19.639 7.324-24.012l24.944-12.207c8.109-3.968 17.906-.98 22.42 6.839z"/><path d="m409.705 46.378-1.28-2.217c-4.514-7.819-2.203-17.798 5.288-22.836l23.043-15.499c8.254-5.551 19.483-2.951 24.457 5.663l3.18 5.509c4.974 8.614 1.611 19.639-7.324 24.012l-24.944 12.207c-8.108 3.968-17.906.979-22.42-6.839z"/></g><path d="m224.207 202.062-39.846-66.658c-3.84-6.423-1.745-14.743 4.678-18.582l20.101-12.016c6.423-3.84 14.743-1.745 18.582 4.678l20.22 33.825 41.532-83.787c3.323-6.705 11.453-9.446 18.158-6.122l20.982 10.401c6.705 3.323 9.446 11.453 6.122 18.158l-58.52 118.059c-2.202 4.442-6.654 7.327-11.608 7.522l-28.24 1.11c-4.952.194-9.617-2.333-12.161-6.588z"/></g></g></svg>