<svg id="Layer_1" enable-background="new 0 0 512.001 512.001" height="512" viewBox="0 0 512.001 512.001" width="512" xmlns="http://www.w3.org/2000/svg"><g><g clip-rule="evenodd" fill-rule="evenodd"><path d="m233.573 144.142c-7.778 7.778-7.778 20.506 0 28.284s20.506 7.778 28.284 0l14.143-14.142 14.142 14.142c7.778 7.778 20.506 7.778 28.284 0s7.778-20.506 0-28.284l-14.142-14.142 14.142-14.142c7.778-7.778 7.778-20.506 0-28.284s-20.506-7.778-28.284 0l-14.142 14.142-14.142-14.142c-7.778-7.778-20.506-7.778-28.284 0s-7.778 20.506 0 28.284l14.142 14.142z" fill="#fff"/><path d="m233.573 172.426c-7.778-7.778-7.778-20.506 0-28.284l14.143-14.142-14.142-14.142c-7.778-7.778-7.778-20.506 0-28.284s20.506-7.778 28.284 0l14.142 14.142 14.142-14.142c7.778-7.778 20.506-7.778 28.284 0s7.778 20.506 0 28.284l-14.142 14.142 14.142 14.142c7.778 7.778 7.778 20.506 0 28.284s-20.506 7.778-28.284 0l-14.142-14.142-14.142 14.142c-7.778 7.778-20.506 7.779-28.285 0zm42.427-162.426c-66.274 0-120 53.726-120 120 0 58.55 41.933 107.307 97.404 117.876 7.318 1.394 14.872 2.124 22.596 2.124 7.725 0 15.278-.73 22.596-2.124 55.472-10.57 97.404-59.326 97.404-117.876 0-66.274-53.726-120-120-120z" fill="#ff5d7d"/><path d="m276 250.001c-7.724 0-15.278-.73-22.596-2.124v63.176 10.178h45.192v-73.354c-7.318 1.394-14.872 2.124-22.596 2.124z" fill="#6d91ac"/><path d="m298.596 321.231h-45.192v-10.178h-11.659c-28.996 0-55.019 12.993-72.543 33.523h-53.202l.07 123.902h53.175c17.547 20.486 43.575 33.523 72.499 33.523l102.501.001c12.417 0 22.596-10.17 22.596-22.597 0-12.428-10.168-22.597-22.596-22.597h15.405c12.421 0 22.594-10.173 22.594-22.596 0-12.428-10.166-22.596-22.594-22.596h8.577c12.423 0 22.597-10.169 22.597-22.598 0-12.428-10.169-22.596-22.597-22.596h-16.281c12.424 0 22.597-10.172 22.597-22.597 0-12.426-10.169-22.596-22.597-22.596h-53.35z" fill="#ffdcd5"/></g><g><path d="m226.502 179.498c5.849 5.849 13.529 8.773 21.213 8.772 7.682-.001 15.366-2.925 21.214-8.772l7.071-7.071 7.071 7.071c11.698 11.698 30.729 11.695 42.426 0 11.697-11.697 11.697-30.73 0-42.428l-7.07-7.07 7.071-7.07c11.697-11.697 11.697-30.73 0-42.428-11.697-11.695-30.729-11.695-42.427 0l-7.071 7.071-7.071-7.071c-11.697-11.697-30.73-11.697-42.426 0-11.697 11.697-11.697 30.73 0 42.428l7.07 7.07-7.071 7.07c-11.697 11.698-11.697 30.731 0 42.428zm28.285-56.569-14.142-14.142c-3.899-3.899-3.899-10.243 0-14.143 1.949-1.95 4.51-2.925 7.071-2.925s5.122.976 7.071 2.925l14.142 14.143c1.875 1.875 4.419 2.929 7.071 2.929s5.196-1.054 7.071-2.929l14.142-14.143c3.899-3.898 10.243-3.898 14.142 0 3.899 3.899 3.899 10.243 0 14.143l-14.142 14.142c-1.875 1.875-2.929 4.419-2.929 7.071s1.054 5.196 2.929 7.071l14.142 14.142c3.899 3.899 3.899 10.243 0 14.143-3.898 3.898-10.243 3.898-14.142 0l-14.142-14.143c-1.875-1.875-4.419-2.929-7.071-2.929s-5.196 1.054-7.071 2.929l-14.142 14.143c-3.899 3.9-10.242 3.9-14.142 0-3.899-3.899-3.899-10.243 0-14.143l14.142-14.142c1.875-1.875 2.929-4.419 2.929-7.071s-1.054-5.196-2.929-7.071z"/><path d="m400.825 389.02c0-13.513-8.266-25.132-20.007-30.066 2.379-4.523 3.727-9.671 3.727-15.127 0-17.974-14.623-32.596-32.598-32.596h-43.351v-55.369c55.959-14.502 97.404-65.432 97.404-125.862 0-71.683-58.317-130-130-130-17.915 0-35.282 3.587-51.618 10.661-5.068 2.195-7.397 8.083-5.203 13.15 2.195 5.067 8.082 7.397 13.151 5.203 13.813-5.981 28.505-9.014 43.67-9.014 60.654 0 110 49.346 110 110s-49.346 110.001-110 110.001-110-49.347-110-110.001c0-15.164 3.032-29.854 9.012-43.662 2.195-5.068-.134-10.956-5.202-13.151-5.069-2.194-10.956.135-13.15 5.202-7.074 16.332-10.66 33.696-10.66 51.611 0 60.43 41.446 111.36 97.404 125.862v45.191h-1.659c-29.281 0-57.089 12.16-77.019 33.522h-48.726c-2.653 0-5.198 1.055-7.073 2.931-1.875 1.877-2.928 4.422-2.927 7.075l.07 123.902c.003 5.521 4.479 9.994 10 9.994h48.708c19.981 21.363 47.771 33.523 76.966 33.523h102.5c17.974 0 32.596-14.623 32.596-32.597 0-5.581-1.409-10.837-3.891-15.435 11.361-5.098 19.293-16.519 19.293-29.757 0-6.774-2.077-13.072-5.627-18.291 8.574-5.877 14.21-15.743 14.21-26.9zm-124.825-129.019c4.249 0 8.45-.212 12.596-.612v51.842h-25.192v-.178-51.664c4.146.4 8.347.612 12.596.612zm92.228 141.616h-8.578c-5.523 0-10 4.478-10 10s4.477 10 10 10c6.944 0 12.594 5.65 12.594 12.596s-5.65 12.596-12.594 12.596l-15.405-.001c-5.523 0-10 4.477-10 10 0 5.522 4.477 10 10 10 6.945 0 12.596 5.651 12.596 12.597s-5.651 12.597-12.596 12.597h-102.5c-24.902 0-48.559-10.945-64.904-30.028-1.899-2.219-4.674-3.495-7.595-3.495h-43.181l-.059-103.902h43.195c2.926 0 5.706-1.282 7.606-3.508 16.283-19.074 39.952-30.015 64.938-30.015h1.659v.178c0 5.522 4.477 10 10 10h98.543c6.946 0 12.598 5.65 12.598 12.596s-5.651 12.598-12.598 12.598c-5.523 0-10 4.478-10 10s4.477 10 10 10h16.281c6.946 0 12.597 5.65 12.597 12.596 0 6.944-5.651 12.595-12.597 12.595z"/><path d="m191.14 55.148c2.707 0 5.406-1.093 7.378-3.245 3.732-4.071 3.457-10.396-.614-14.128-4.072-3.732-10.397-3.456-14.129.614l-.005.006c-3.732 4.071-3.454 10.394.617 14.125 1.919 1.76 4.339 2.628 6.753 2.628z"/></g></g></svg>